<?xml version="1.0" encoding="UTF-8" standalone="no"?>
<svg
   width="512"
   height="408"
   version="1.1"
   id="svg33"
   sodipodi:docname="B&amp;E-logo.svg"
   inkscape:version="1.2.1 (9c6d41e410, 2022-07-14)"
   xml:space="preserve"
   xmlns:inkscape="http://www.inkscape.org/namespaces/inkscape"
   xmlns:sodipodi="http://sodipodi.sourceforge.net/DTD/sodipodi-0.dtd"
   xmlns="http://www.w3.org/2000/svg"
   xmlns:svg="http://www.w3.org/2000/svg"><sodipodi:namedview
     id="namedview35"
     pagecolor="#ffffff"
     bordercolor="#000000"
     borderopacity="0.25"
     inkscape:showpageshadow="2"
     inkscape:pageopacity="0.0"
     inkscape:pagecheckerboard="0"
     inkscape:deskcolor="#d1d1d1"
     showgrid="false"
     inkscape:zoom="1.1559809"
     inkscape:cx="426.91015"
     inkscape:cy="263.84518"
     inkscape:window-width="1600"
     inkscape:window-height="847"
     inkscape:window-x="-8"
     inkscape:window-y="49"
     inkscape:window-maximized="1"
     inkscape:current-layer="layer2" /><defs
     id="defs27"><linearGradient
       id="bs-logo-a"
       x1="76.079"
       x2="523.48"
       y1="10.798"
       y2="365.945"
       gradientUnits="userSpaceOnUse"><stop
         stop-color="#9013fe"
         id="stop2"
         offset="0"
         style="stop-color:#6013fe;stop-opacity:1;" /><stop
         offset="1"
         stop-color="#6610f2"
         id="stop4" /></linearGradient><linearGradient
       id="bs-logo-b"
       x1="193.508"
       x2="293.514"
       y1="109.74"
       y2="278.872"
       gradientUnits="userSpaceOnUse"><stop
         stop-color="#fff"
         id="stop7" /><stop
         offset="1"
         stop-color="#f1e5fc"
         id="stop9" /></linearGradient><filter
       id="bs-logo-c"
       width="197"
       height="249"
       x="161.901"
       y="83.457"
       color-interpolation-filters="sRGB"
       filterUnits="userSpaceOnUse"><feFlood
         flood-opacity="0"
         result="BackgroundImageFix"
         id="feFlood12" /><feColorMatrix
         in="SourceAlpha"
         values="0 0 0 0 0 0 0 0 0 0 0 0 0 0 0 0 0 0 127 0"
         id="feColorMatrix14" /><feOffset
         dy="4"
         id="feOffset16" /><feGaussianBlur
         stdDeviation="8"
         id="feGaussianBlur18" /><feColorMatrix
         values="0 0 0 0 0 0 0 0 0 0 0 0 0 0 0 0 0 0 0.15 0"
         id="feColorMatrix20" /><feBlend
         in2="BackgroundImageFix"
         result="effect1_dropShadow"
         id="feBlend22" /><feBlend
         in="SourceGraphic"
         in2="effect1_dropShadow"
         result="shape"
         id="feBlend24" /></filter><filter
       id="bs-logo-c-4"
       width="197"
       height="249"
       x="161.901"
       y="83.457001"
       color-interpolation-filters="sRGB"
       filterUnits="userSpaceOnUse"><feFlood
         flood-opacity="0"
         result="BackgroundImageFix"
         id="feFlood12-8" /><feColorMatrix
         in="SourceAlpha"
         values="0 0 0 0 0 0 0 0 0 0 0 0 0 0 0 0 0 0 127 0"
         id="feColorMatrix14-6" /><feOffset
         dy="4"
         id="feOffset16-1" /><feGaussianBlur
         stdDeviation="8"
         id="feGaussianBlur18-1" /><feColorMatrix
         values="0 0 0 0 0 0 0 0 0 0 0 0 0 0 0 0 0 0 0.15 0"
         id="feColorMatrix20-2" /><feBlend
         in2="BackgroundImageFix"
         result="effect1_dropShadow"
         id="feBlend22-3"
         mode="normal" /><feBlend
         in="SourceGraphic"
         in2="effect1_dropShadow"
         result="shape"
         id="feBlend24-3"
         mode="normal" /></filter></defs><path
     fill="url(#bs-logo-a)"
     d="M 56.481,53.32 C 55.515,25.58 77.128,0 106.342,0 h 299.353 c 29.214,0 50.827,25.58 49.861,53.32 -0.928,26.647 0.277,61.165 8.964,89.31 8.715,28.232 23.411,46.077 47.48,48.37 v 26 c -24.069,2.293 -38.765,20.138 -47.48,48.37 -8.687,28.145 -9.892,62.663 -8.964,89.311 C 456.522,382.42 434.909,408 405.695,408 H 106.342 C 77.128,408 55.515,382.42 56.482,354.681 57.409,328.033 56.204,293.515 47.516,265.37 38.802,237.138 24.07,219.293 0,217 v -26 c 24.069,-2.293 38.802,-20.138 47.516,-48.37 8.688,-28.145 9.893,-62.663 8.965,-89.31 z"
     id="path29"
     style="display:none"
     sodipodi:insensitive="true" /><path
     fill="url(#bs-logo-b)"
     filter="url(#bs-logo-c)"
     stroke="#ffffff"
     d="m 267.103,312.457 c 47.297,0 75.798,-23.158 75.798,-61.355 0,-28.873 -20.336,-49.776 -50.532,-53.085 v -1.203 c 22.185,-3.609 39.594,-24.211 39.594,-47.219 0,-32.783 -25.882,-54.138 -65.322,-54.138 h -88.74 v 217 z m -54.692,-189.48 h 45.911 c 24.958,0 39.131,11.128 39.131,31.279 0,21.505 -16.484,33.535 -46.372,33.535 h -38.67 z m 0,161.961 v -71.431 h 45.602 c 32.661,0 49.608,12.03 49.608,35.49 0,23.459 -16.484,35.941 -47.605,35.941 z"
     id="path31"
     style="display:none"
     sodipodi:insensitive="true" /><g
     inkscape:groupmode="layer"
     id="layer1"
     inkscape:label="BUSCA"
     style="display:inline"
     transform="matrix(1.051753,0,0,1.0392435,-0.92424802,-0.01563942)"><g
       id="g6451"
       transform="translate(-106.40052,-82.156313)"
       style="fill:#000000;fill-opacity:1;stroke:#ffffff;stroke-opacity:1"><rect
         style="fill:#000000;fill-opacity:1;stroke:#ffffff;stroke-opacity:1"
         id="rect6372"
         width="35.467712"
         height="218.86174"
         x="177.33856"
         y="94.292213" /><path
         style="opacity:1;fill:#000000;fill-opacity:1;stroke:#ffffff;stroke-opacity:1"
         d="m 212.70133,123.55154 -0.27961,-28.879269 c 0,0 45.2559,-2.001265 66.99465,0.701274 11.68905,1.453171 23.86318,5.450855 33.19692,12.759725 3.50511,2.74472 8.01501,6.44257 10.88089,10.62372 3.38219,4.93441 5.44823,11.1763 7.06154,16.49918 1.60083,5.28172 2.11479,10.63807 1.82973,16.14969 -0.23591,4.56125 -2.14644,13.38925 -2.14644,13.38925 0,0 -1.3027,3.91029 -3.71458,8.29448 -1.98981,3.61694 -4.94176,7.6255 -6.721,9.42069 -1.86807,1.88481 -3.92136,3.84089 -6.55189,5.80724 -2.81696,2.10571 -6.15305,4.15971 -6.15305,4.15971 0,0 -4.56261,2.06906 -6.95205,2.9414 -2.15215,0.7857 -6.67274,2.03272 -6.67274,2.03272 0,0 10.92807,1.7653 15.96177,3.93019 3.44364,1.48104 7.32148,3.16567 10.48408,5.22489 2.93235,1.9093 5.71461,4.04767 8.29249,6.37901 3.55875,3.21841 6.13775,7.24718 8.41245,11.37969 2.41783,4.39252 4.27547,9.14749 5.43629,14.02526 1.14367,4.80571 1.83145,9.82479 1.44254,14.74938 -0.73555,9.31389 -2.51124,18.96808 -7.07315,27.12152 -4.8845,8.73 -10.10748,15.10397 -20.78597,21.6468 -6.96497,4.26751 -22.54614,9.53884 -34.5348,10.3034 -22.28925,1.42147 -68.95193,0.94246 -68.95193,0.94246 l 0.27962,-28.83765 c 0,0 16.44663,0.31374 33.91947,0.17368 10.44497,-0.0837 21.06009,0.0635 29.2937,-1.20705 9.38645,-1.44843 19.05331,-5.56852 25.23985,-13.32981 3.82758,-4.80186 5.82011,-11.62969 6.15531,-17.94437 0.37951,-7.14945 -0.93397,-14.95674 -4.779,-20.94014 -2.46851,-3.84135 -7.72751,-8.03966 -12.81782,-10.78722 -2.51178,-1.35577 -7.75302,-3.50781 -11.86908,-4.47545 -3.42317,-0.80475 -9.5286,-1.46115 -12.6249,-1.52741 -19.00409,-0.4067 -52.67496,-0.35381 -52.67496,-0.35381 L 212.0109,187.0597 c 0,0 14.35953,0.36342 30.0992,0.34144 10.29951,-0.0144 19.03158,-0.1139 28.86867,-2.38512 6.10352,-1.4092 12.99506,-5.15602 18.02421,-9.7872 2.66333,-2.45257 5.15449,-6.41086 5.95065,-9.08656 0.66214,-2.22527 0.91065,-3.51619 1.14166,-4.4634 0.24015,-0.98464 0.38557,-1.47079 0.51899,-2.08066 0.0966,-0.44155 0.31413,-1.0257 0.32904,-1.79494 0.10071,-5.19512 -0.2205,-11.76074 -2.60457,-16.95968 -1.9609,-4.27612 -4.98891,-8.06176 -9.17278,-10.72533 -3.73659,-2.37883 -5.5516,-3.05894 -8.53684,-4.07372 -2.96227,-1.00697 -4.99779,-1.5506 -9.17979,-1.95776 -11.52861,-1.12244 -54.74801,-0.53523 -54.74801,-0.53523 z"
         id="path6443"
         sodipodi:nodetypes="ccssasscssscscsssaaaassccsssassssccssassssasasc" /></g></g><g
     inkscape:groupmode="layer"
     id="layer3"
     inkscape:label="&amp;"
     style="display:inline"><text
       xml:space="preserve"
       style="font-size:293.384px;line-height:5;opacity:1;fill:#fc0202;fill-opacity:1;stroke:#ffffff;stroke-width:1.10019;stroke-opacity:1"
       x="157.02838"
       y="350.69559"
       id="text7530"
       transform="scale(0.99594451,1.004072)"><tspan
         sodipodi:role="line"
         id="tspan7528"
         x="157.02838"
         y="350.69559"
         style="font-style:normal;font-variant:normal;font-weight:normal;font-stretch:normal;font-size:293.384px;font-family:'Arial Rounded MT Bold';-inkscape-font-specification:'Arial Rounded MT Bold, ';fill:#fc0202;fill-opacity:1;stroke-width:1.10019">&amp;</tspan></text></g><g
     inkscape:groupmode="layer"
     id="layer2"
     inkscape:label="Encuentra"
     style="display:inline"
     transform="translate(-63.14983,-4.3253308)"><g
       id="g6887"
       transform="matrix(1.0205238,0,0,1.0138783,171.87516,83.72674)"
       style="display:inline"><rect
         style="opacity:1;fill:#000000;fill-opacity:1;stroke:#ffffff;stroke-opacity:1"
         id="rect6514"
         width="37.313339"
         height="218.98651"
         x="176.77962"
         y="94.200897" /><rect
         style="opacity:1;fill:#000000;fill-opacity:1;stroke:#ffffff;stroke-opacity:1"
         id="rect6855"
         width="89.613182"
         height="27.220398"
         x="213.78711"
         y="186.87256" /><rect
         style="opacity:1;fill:#000000;fill-opacity:1;stroke:#ffffff;stroke-opacity:1"
         id="rect6857"
         width="110.4108"
         height="28.443779"
         x="214.09296"
         y="94.200897" /><rect
         style="display:inline;fill:#000000;fill-opacity:1;stroke:#ffffff;stroke-opacity:1"
         id="rect6857-2"
         width="110.4108"
         height="28.443779"
         x="214.55173"
         y="284.89655" /></g></g></svg>
