<?xml version="1.0" standalone="no"?>
<!DOCTYPE svg PUBLIC "-//W3C//DTD SVG 20010904//EN"
 "http://www.w3.org/TR/2001/REC-SVG-20010904/DTD/svg10.dtd">
<svg version="1.0" xmlns="http://www.w3.org/2000/svg"
 width="2363.000000pt" height="2363.000000pt" viewBox="0 0 2363.000000 2363.000000"
 preserveAspectRatio="xMidYMid meet">

<g transform="translate(0.000000,2363.000000) scale(0.100000,-0.100000)"
fill="#000000" stroke="none">
<path d="M5315 17309 c-458 -58 -837 -369 -987 -809 -63 -185 -58 296 -58
-5987 0 -5710 0 -5735 20 -5834 50 -245 150 -431 329 -610 154 -155 331 -257
548 -317 l98 -27 5700 0 5700 0 97 27 c223 63 395 162 549 317 155 154 257
332 317 548 l27 98 3 5765 c2 5210 1 5773 -14 5850 -60 326 -242 605 -514 785
-157 105 -336 171 -530 195 -106 13 -11181 12 -11285 -1z m11395 -230 c349
-97 599 -338 707 -685 l28 -89 0 -5785 0 -5785 -23 -80 c-33 -116 -111 -268
-187 -362 -124 -154 -324 -285 -515 -335 l-85 -23 -5670 0 -5670 0 -85 23
c-328 87 -592 344 -697 678 l-28 89 0 5785 c0 5603 1 5787 19 5853 49 181 126
316 256 447 168 170 369 268 600 293 19 2 2559 3 5645 3 l5610 -1 95 -26z"/>
<path d="M8540 15350 c-109 -51 -131 -98 -141 -300 -5 -85 -15 -1073 -24
-2195 -9 -1122 -16 -2157 -18 -2300 -1 -193 2 -272 11 -305 19 -61 92 -132
153 -148 27 -7 187 -13 422 -15 208 -3 380 -6 382 -9 2 -2 -2 -26 -10 -53 -51
-169 -59 -469 -17 -625 93 -347 320 -646 607 -801 92 -50 206 -92 315 -115
116 -26 423 -26 559 -1 110 21 231 58 320 98 35 16 65 28 66 27 1 -2 8 -507
14 -1123 7 -616 14 -1136 17 -1155 18 -114 70 -186 153 -211 54 -16 2140 6
2184 23 60 23 95 166 82 331 -8 112 -28 177 -62 212 l-28 27 -630 -6 c-346 -3
-741 -9 -876 -12 l-246 -6 -7 513 c-3 283 -9 702 -12 931 l-7 417 179 3 c173
3 182 2 256 -24 118 -41 225 -58 374 -58 151 0 186 9 226 60 l25 32 214 5
c118 3 222 10 232 15 11 5 29 31 40 56 20 42 22 64 22 197 0 169 -16 239 -63
276 l-27 22 -502 -6 -502 -7 -62 51 c-33 28 -74 72 -91 98 -39 60 -34 104 20
197 67 115 177 342 226 466 50 126 115 343 136 449 16 80 9 109 -35 157 l-33
37 -149 3 c-134 2 -151 1 -181 -18 -42 -26 -50 -44 -196 -450 l-125 -345 0
386 c-1 212 -4 433 -7 491 l-7 105 867 9 868 9 28 32 c41 45 53 119 47 282 -7
216 -34 266 -141 266 -33 0 -434 -4 -891 -9 l-830 -8 95 98 c111 115 146 163
200 276 163 340 95 740 -170 1009 -181 183 -389 270 -645 270 -167 0 -305 -26
-443 -83 -71 -29 -74 -30 -124 -16 l-51 14 69 41 c268 160 447 433 521 798 25
126 25 478 -1 614 -34 186 -106 369 -197 503 -160 235 -437 403 -772 467 -173
33 -310 40 -947 46 -612 6 -615 6 -660 -15z m1226 -570 c72 -6 166 -19 210
-30 257 -65 430 -234 494 -484 27 -107 39 -278 29 -411 -31 -395 -222 -656
-546 -748 -76 -21 -90 -22 -517 -20 -241 2 -441 4 -443 6 -2 2 0 385 3 851 l7
846 316 0 c174 0 375 -5 447 -10z m1516 -2217 c113 -53 189 -137 227 -251 26
-75 28 -225 6 -321 -18 -73 -68 -181 -96 -207 -18 -16 -19 -16 -19 15 0 49
-38 225 -66 311 -54 160 -124 288 -232 424 l-55 69 84 -5 c68 -3 98 -10 151
-35z m-1262 -67 c47 -9 109 -24 138 -32 62 -18 61 -9 14 -144 -49 -139 -66
-240 -66 -390 0 -200 37 -367 137 -625 55 -139 62 -191 34 -223 -10 -11 -59
-43 -110 -72 -147 -84 -336 -213 -412 -282 l-70 -64 -359 4 -359 4 6 592 c4
325 7 741 7 924 l0 334 478 -5 c388 -4 493 -8 562 -21z m664 -494 c45 -105 66
-216 72 -362 6 -158 1 -156 -61 20 -56 160 -88 348 -71 416 7 25 8 26 20 8 8
-11 26 -47 40 -82z m261 -2078 l209 -359 4 -215 4 -215 -78 -47 c-96 -57 -203
-100 -307 -123 -117 -26 -314 -17 -422 18 -310 102 -545 427 -545 755 0 83 23
222 48 289 l18 48 139 12 c238 21 459 79 625 164 41 21 79 37 85 35 5 -1 104
-164 220 -362z"/>
</g>
</svg>
